<?xml version="1.0" encoding="UTF-8" standalone="no"?><!DOCTYPE svg PUBLIC "-//W3C//DTD SVG 1.1//EN" "http://www.w3.org/Graphics/SVG/1.1/DTD/svg11.dtd"><svg width="100%" height="100%" viewBox="0 0 417 209" version="1.1" xmlns="http://www.w3.org/2000/svg" xmlns:xlink="http://www.w3.org/1999/xlink" xml:space="preserve" xmlns:serif="http://www.serif.com/" style="fill-rule:evenodd;clip-rule:evenodd;stroke-linejoin:round;stroke-miterlimit:2;"><path d="M61.695,42.133c0.455,3.29 2.717,18.646 6.037,32.732c1.997,8.472 4.384,16.485 6.979,21.185c5.134,9.298 12.299,15.892 20.605,20.54c12.527,7.009 27.661,9.578 42.309,10.319c17.544,0.888 37.676,0.303 58.775,-1.075c46.568,-3.04 97.854,-9.939 136.384,-13.348c0.433,-0.038 0.754,-0.421 0.715,-0.854c-0.038,-0.433 -0.421,-0.754 -0.854,-0.716c-38.519,3.408 -89.792,10.307 -136.348,13.346c-21.033,1.373 -41.103,1.958 -58.593,1.073c-14.407,-0.728 -29.298,-3.227 -41.618,-10.121c-8.06,-4.509 -15.014,-10.905 -19.996,-19.926c-2.545,-4.609 -4.866,-12.475 -6.824,-20.785c-3.305,-14.022 -5.557,-29.31 -6.01,-32.586c-0.059,-0.43 -0.457,-0.732 -0.888,-0.672c-0.431,0.059 -0.732,0.457 -0.673,0.888Z"/><path d="M373.564,107.534l-7.807,3.639c-6.56,2.857 -12.884,5.909 -19.1,9.165c-6.216,3.255 -12.324,6.715 -18.452,10.388c-0.489,0.294 -0.647,0.93 -0.353,1.419c0.294,0.489 0.93,0.648 1.419,0.353c6.081,-3.675 12.142,-7.139 18.312,-10.4c6.163,-3.257 12.434,-6.313 18.94,-9.175l8.155,-3.839c0.346,-0.177 1.447,-0.554 2.061,-0.921c0.455,-0.272 0.716,-0.609 0.803,-0.86c0.34,-0.982 -0.066,-1.496 -0.998,-1.682c-0.628,-0.126 -1.973,0.184 -2.667,0.085l-5.276,-0.728l-16.919,-2.761c-8.489,-1.54 -16.943,-3.262 -25.363,-5.136c-8.422,-1.874 -16.811,-3.902 -25.168,-6.053c-0.421,-0.109 -0.851,0.144 -0.96,0.565c-0.109,0.421 0.144,0.851 0.565,0.96c8.366,2.188 16.764,4.25 25.197,6.161c8.435,1.91 16.905,3.668 25.41,5.244l16.974,2.835l5.227,0.741Z"/></svg>