<?xml version="1.0" encoding="UTF-8" standalone="no"?><!DOCTYPE svg PUBLIC "-//W3C//DTD SVG 1.1//EN" "http://www.w3.org/Graphics/SVG/1.1/DTD/svg11.dtd"><svg width="100%" height="100%" viewBox="0 0 16000 9000" version="1.1" xmlns="http://www.w3.org/2000/svg" xmlns:xlink="http://www.w3.org/1999/xlink" xml:space="preserve" xmlns:serif="http://www.serif.com/" style="fill-rule:evenodd;clip-rule:evenodd;stroke-linejoin:round;stroke-miterlimit:2;"><g><g><circle cx="329.135" cy="204.952" r="6.25" style="fill:#212121;"/><circle cx="1096.22" cy="204.952" r="6.25" style="fill:#212121;"/><circle cx="1863.31" cy="204.952" r="6.25" style="fill:#212121;"/><circle cx="2630.39" cy="204.952" r="6.25" style="fill:#212121;"/><circle cx="3397.48" cy="204.952" r="6.25" style="fill:#212121;"/><circle cx="4164.57" cy="204.952" r="6.25" style="fill:#212121;"/><circle cx="4931.65" cy="204.952" r="6.25" style="fill:#212121;"/><circle cx="5698.74" cy="204.952" r="6.25" style="fill:#212121;"/><circle cx="6465.83" cy="204.952" r="6.25" style="fill:#212121;"/><circle cx="7232.91" cy="204.952" r="6.25" style="fill:#212121;"/><circle cx="8000" cy="204.952" r="6.25" style="fill:#212121;"/><circle cx="8767.09" cy="204.952" r="6.25" style="fill:#212121;"/><circle cx="9534.17" cy="204.952" r="6.25" style="fill:#212121;"/><circle cx="10301.3" cy="204.952" r="6.25" style="fill:#212121;"/><circle cx="11068.3" cy="204.952" r="6.25" style="fill:#212121;"/><circle cx="11835.4" cy="204.952" r="6.25" style="fill:#212121;"/><circle cx="12602.5" cy="204.952" r="6.25" style="fill:#212121;"/><circle cx="13369.6" cy="204.952" r="6.25" style="fill:#212121;"/><circle cx="14136.7" cy="204.952" r="6.25" style="fill:#212121;"/><circle cx="14903.8" cy="204.952" r="6.25" style="fill:#212121;"/><circle cx="15670.9" cy="204.952" r="6.25" style="fill:#212121;"/></g><g><circle cx="329.135" cy="1025.03" r="6.25" style="fill:#212121;"/><circle cx="1096.22" cy="1025.03" r="6.25" style="fill:#212121;"/><circle cx="1863.31" cy="1025.03" r="6.25" style="fill:#212121;"/><circle cx="2630.39" cy="1025.03" r="6.25" style="fill:#212121;"/><circle cx="3397.48" cy="1025.03" r="6.25" style="fill:#212121;"/><circle cx="4164.57" cy="1025.03" r="6.25" style="fill:#212121;"/><circle cx="4931.65" cy="1025.03" r="6.25" style="fill:#212121;"/><circle cx="5698.74" cy="1025.03" r="6.25" style="fill:#212121;"/><circle cx="6465.83" cy="1025.03" r="6.25" style="fill:#212121;"/><circle cx="7232.91" cy="1025.03" r="6.25" style="fill:#212121;"/><circle cx="8000" cy="1025.03" r="6.25" style="fill:#212121;"/><circle cx="8767.09" cy="1025.03" r="6.25" style="fill:#212121;"/><circle cx="9534.17" cy="1025.03" r="6.25" style="fill:#212121;"/><circle cx="10301.3" cy="1025.03" r="6.25" style="fill:#212121;"/><circle cx="11068.3" cy="1025.03" r="6.25" style="fill:#212121;"/><circle cx="11835.4" cy="1025.03" r="6.25" style="fill:#212121;"/><circle cx="12602.5" cy="1025.03" r="6.25" style="fill:#212121;"/><circle cx="13369.6" cy="1025.03" r="6.25" style="fill:#212121;"/><circle cx="14136.7" cy="1025.03" r="6.25" style="fill:#212121;"/><circle cx="14903.8" cy="1025.03" r="6.25" style="fill:#212121;"/><circle cx="15670.9" cy="1025.03" r="6.25" style="fill:#212121;"/></g><g><circle cx="329.135" cy="1845.1" r="6.25" style="fill:#212121;"/><circle cx="1096.22" cy="1845.1" r="6.25" style="fill:#212121;"/><circle cx="1863.31" cy="1845.1" r="6.25" style="fill:#212121;"/><circle cx="2630.39" cy="1845.1" r="6.25" style="fill:#212121;"/><circle cx="3397.48" cy="1845.1" r="6.25" style="fill:#212121;"/><circle cx="4164.57" cy="1845.1" r="6.25" style="fill:#212121;"/><circle cx="4931.65" cy="1845.1" r="6.25" style="fill:#212121;"/><circle cx="5698.74" cy="1845.1" r="6.25" style="fill:#212121;"/><circle cx="6465.83" cy="1845.1" r="6.25" style="fill:#212121;"/><circle cx="7232.91" cy="1845.1" r="6.25" style="fill:#212121;"/><circle cx="8000" cy="1845.1" r="6.25" style="fill:#212121;"/><circle cx="8767.09" cy="1845.1" r="6.25" style="fill:#212121;"/><circle cx="9534.17" cy="1845.1" r="6.25" style="fill:#212121;"/><circle cx="10301.3" cy="1845.1" r="6.25" style="fill:#212121;"/><circle cx="11068.3" cy="1845.1" r="6.25" style="fill:#212121;"/><circle cx="11835.4" cy="1845.1" r="6.25" style="fill:#212121;"/><circle cx="12602.5" cy="1845.1" r="6.25" style="fill:#212121;"/><circle cx="13369.6" cy="1845.1" r="6.25" style="fill:#212121;"/><circle cx="14136.7" cy="1845.1" r="6.25" style="fill:#212121;"/><circle cx="14903.8" cy="1845.1" r="6.25" style="fill:#212121;"/><circle cx="15670.9" cy="1845.1" r="6.25" style="fill:#212121;"/></g><g><circle cx="329.135" cy="2665.18" r="6.25" style="fill:#212121;"/><circle cx="1096.22" cy="2665.18" r="6.25" style="fill:#212121;"/><circle cx="1863.31" cy="2665.18" r="6.25" style="fill:#212121;"/><circle cx="2630.39" cy="2665.18" r="6.25" style="fill:#212121;"/><circle cx="3397.48" cy="2665.18" r="6.25" style="fill:#212121;"/><circle cx="4164.57" cy="2665.18" r="6.25" style="fill:#212121;"/><circle cx="4931.65" cy="2665.18" r="6.25" style="fill:#212121;"/><circle cx="5698.74" cy="2665.18" r="6.25" style="fill:#212121;"/><circle cx="6465.83" cy="2665.18" r="6.25" style="fill:#212121;"/><circle cx="7232.91" cy="2665.18" r="6.25" style="fill:#212121;"/><circle cx="8000" cy="2665.18" r="6.25" style="fill:#212121;"/><circle cx="8767.09" cy="2665.18" r="6.25" style="fill:#212121;"/><circle cx="9534.17" cy="2665.18" r="6.25" style="fill:#212121;"/><circle cx="10301.3" cy="2665.18" r="6.25" style="fill:#212121;"/><circle cx="11068.3" cy="2665.18" r="6.25" style="fill:#212121;"/><circle cx="11835.4" cy="2665.18" r="6.25" style="fill:#212121;"/><circle cx="12602.5" cy="2665.18" r="6.25" style="fill:#212121;"/><circle cx="13369.6" cy="2665.18" r="6.25" style="fill:#212121;"/><circle cx="14136.7" cy="2665.18" r="6.25" style="fill:#212121;"/><circle cx="14903.8" cy="2665.18" r="6.25" style="fill:#212121;"/><circle cx="15670.9" cy="2665.18" r="6.25" style="fill:#212121;"/></g><g><circle cx="329.135" cy="3485.26" r="6.25" style="fill:#212121;"/><circle cx="1096.22" cy="3485.26" r="6.25" style="fill:#212121;"/><circle cx="1863.31" cy="3485.26" r="6.25" style="fill:#212121;"/><circle cx="2630.39" cy="3485.26" r="6.25" style="fill:#212121;"/><circle cx="3397.48" cy="3485.26" r="6.25" style="fill:#212121;"/><circle cx="4164.57" cy="3485.26" r="6.25" style="fill:#212121;"/><circle cx="4931.65" cy="3485.26" r="6.25" style="fill:#212121;"/><circle cx="5698.74" cy="3485.26" r="6.25" style="fill:#212121;"/><circle cx="6465.83" cy="3485.26" r="6.25" style="fill:#212121;"/><circle cx="7232.91" cy="3485.26" r="6.25" style="fill:#212121;"/><circle cx="8000" cy="3485.26" r="6.25" style="fill:#212121;"/><circle cx="8767.09" cy="3485.26" r="6.25" style="fill:#212121;"/><circle cx="9534.17" cy="3485.26" r="6.25" style="fill:#212121;"/><circle cx="10301.3" cy="3485.26" r="6.25" style="fill:#212121;"/><circle cx="11068.3" cy="3485.26" r="6.25" style="fill:#212121;"/><circle cx="11835.4" cy="3485.26" r="6.25" style="fill:#212121;"/><circle cx="12602.5" cy="3485.26" r="6.25" style="fill:#212121;"/><circle cx="13369.6" cy="3485.26" r="6.25" style="fill:#212121;"/><circle cx="14136.7" cy="3485.26" r="6.25" style="fill:#212121;"/><circle cx="14903.8" cy="3485.26" r="6.25" style="fill:#212121;"/><circle cx="15670.9" cy="3485.26" r="6.25" style="fill:#212121;"/></g><g><circle cx="329.135" cy="4305.33" r="6.25" style="fill:#212121;"/><circle cx="1096.22" cy="4305.33" r="6.25" style="fill:#212121;"/><circle cx="1863.31" cy="4305.33" r="6.25" style="fill:#212121;"/><circle cx="2630.39" cy="4305.33" r="6.25" style="fill:#212121;"/><circle cx="3397.48" cy="4305.33" r="6.25" style="fill:#212121;"/><circle cx="4164.57" cy="4305.33" r="6.25" style="fill:#212121;"/><circle cx="4931.65" cy="4305.33" r="6.25" style="fill:#212121;"/><circle cx="5698.74" cy="4305.33" r="6.25" style="fill:#212121;"/><circle cx="6465.83" cy="4305.33" r="6.25" style="fill:#212121;"/><circle cx="7232.91" cy="4305.33" r="6.25" style="fill:#212121;"/><circle cx="8000" cy="4305.33" r="6.25" style="fill:#212121;"/><circle cx="8767.09" cy="4305.33" r="6.25" style="fill:#212121;"/><circle cx="9534.17" cy="4305.33" r="6.25" style="fill:#212121;"/><circle cx="10301.3" cy="4305.33" r="6.25" style="fill:#212121;"/><circle cx="11068.3" cy="4305.33" r="6.25" style="fill:#212121;"/><circle cx="11835.4" cy="4305.33" r="6.25" style="fill:#212121;"/><circle cx="12602.5" cy="4305.33" r="6.25" style="fill:#212121;"/><circle cx="13369.6" cy="4305.33" r="6.25" style="fill:#212121;"/><circle cx="14136.7" cy="4305.33" r="6.25" style="fill:#212121;"/><circle cx="14903.8" cy="4305.33" r="6.25" style="fill:#212121;"/><circle cx="15670.9" cy="4305.33" r="6.25" style="fill:#212121;"/></g><g><circle cx="329.135" cy="5125.41" r="6.25" style="fill:#212121;"/><circle cx="1096.22" cy="5125.41" r="6.25" style="fill:#212121;"/><circle cx="1863.31" cy="5125.41" r="6.25" style="fill:#212121;"/><circle cx="2630.39" cy="5125.41" r="6.25" style="fill:#212121;"/><circle cx="3397.48" cy="5125.41" r="6.25" style="fill:#212121;"/><circle cx="4164.57" cy="5125.41" r="6.25" style="fill:#212121;"/><circle cx="4931.65" cy="5125.41" r="6.25" style="fill:#212121;"/><circle cx="5698.74" cy="5125.41" r="6.25" style="fill:#212121;"/><circle cx="6465.83" cy="5125.41" r="6.25" style="fill:#212121;"/><circle cx="7232.91" cy="5125.41" r="6.25" style="fill:#212121;"/><circle cx="8000" cy="5125.41" r="6.25" style="fill:#212121;"/><circle cx="8767.09" cy="5125.41" r="6.25" style="fill:#212121;"/><circle cx="9534.17" cy="5125.41" r="6.25" style="fill:#212121;"/><circle cx="10301.3" cy="5125.41" r="6.25" style="fill:#212121;"/><circle cx="11068.3" cy="5125.41" r="6.25" style="fill:#212121;"/><circle cx="11835.4" cy="5125.41" r="6.25" style="fill:#212121;"/><circle cx="12602.5" cy="5125.41" r="6.25" style="fill:#212121;"/><circle cx="13369.6" cy="5125.41" r="6.25" style="fill:#212121;"/><circle cx="14136.7" cy="5125.41" r="6.25" style="fill:#212121;"/><circle cx="14903.8" cy="5125.41" r="6.25" style="fill:#212121;"/><circle cx="15670.9" cy="5125.41" r="6.25" style="fill:#212121;"/></g><g><circle cx="329.135" cy="5945.48" r="6.25" style="fill:#212121;"/><circle cx="1096.22" cy="5945.48" r="6.25" style="fill:#212121;"/><circle cx="1863.31" cy="5945.48" r="6.25" style="fill:#212121;"/><circle cx="2630.39" cy="5945.48" r="6.25" style="fill:#212121;"/><circle cx="3397.48" cy="5945.48" r="6.25" style="fill:#212121;"/><circle cx="4164.57" cy="5945.48" r="6.25" style="fill:#212121;"/><circle cx="4931.65" cy="5945.48" r="6.25" style="fill:#212121;"/><circle cx="5698.74" cy="5945.48" r="6.25" style="fill:#212121;"/><circle cx="6465.83" cy="5945.48" r="6.25" style="fill:#212121;"/><circle cx="7232.91" cy="5945.48" r="6.25" style="fill:#212121;"/><circle cx="8000" cy="5945.48" r="6.25" style="fill:#212121;"/><circle cx="8767.09" cy="5945.48" r="6.25" style="fill:#212121;"/><circle cx="9534.17" cy="5945.48" r="6.25" style="fill:#212121;"/><circle cx="10301.3" cy="5945.48" r="6.25" style="fill:#212121;"/><circle cx="11068.3" cy="5945.48" r="6.25" style="fill:#212121;"/><circle cx="11835.4" cy="5945.48" r="6.25" style="fill:#212121;"/><circle cx="12602.5" cy="5945.48" r="6.25" style="fill:#212121;"/><circle cx="13369.6" cy="5945.48" r="6.25" style="fill:#212121;"/><circle cx="14136.7" cy="5945.48" r="6.25" style="fill:#212121;"/><circle cx="14903.8" cy="5945.48" r="6.25" style="fill:#212121;"/><circle cx="15670.9" cy="5945.48" r="6.25" style="fill:#212121;"/></g><g><circle cx="329.135" cy="6765.56" r="6.25" style="fill:#212121;"/><circle cx="1096.22" cy="6765.56" r="6.25" style="fill:#212121;"/><circle cx="1863.31" cy="6765.56" r="6.25" style="fill:#212121;"/><circle cx="2630.39" cy="6765.56" r="6.25" style="fill:#212121;"/><circle cx="3397.48" cy="6765.56" r="6.25" style="fill:#212121;"/><circle cx="4164.57" cy="6765.56" r="6.25" style="fill:#212121;"/><circle cx="4931.65" cy="6765.56" r="6.25" style="fill:#212121;"/><circle cx="5698.74" cy="6765.56" r="6.25" style="fill:#212121;"/><circle cx="6465.83" cy="6765.56" r="6.25" style="fill:#212121;"/><circle cx="7232.91" cy="6765.56" r="6.25" style="fill:#212121;"/><circle cx="8000" cy="6765.56" r="6.25" style="fill:#212121;"/><circle cx="8767.09" cy="6765.56" r="6.25" style="fill:#212121;"/><circle cx="9534.17" cy="6765.56" r="6.25" style="fill:#212121;"/><circle cx="10301.3" cy="6765.56" r="6.25" style="fill:#212121;"/><circle cx="11068.3" cy="6765.56" r="6.25" style="fill:#212121;"/><circle cx="11835.4" cy="6765.56" r="6.25" style="fill:#212121;"/><circle cx="12602.5" cy="6765.56" r="6.25" style="fill:#212121;"/><circle cx="13369.6" cy="6765.56" r="6.25" style="fill:#212121;"/><circle cx="14136.7" cy="6765.56" r="6.25" style="fill:#212121;"/><circle cx="14903.8" cy="6765.56" r="6.25" style="fill:#212121;"/><circle cx="15670.9" cy="6765.56" r="6.25" style="fill:#212121;"/></g><g><circle cx="329.135" cy="7585.63" r="6.25" style="fill:#212121;"/><circle cx="1096.22" cy="7585.63" r="6.25" style="fill:#212121;"/><circle cx="1863.31" cy="7585.63" r="6.25" style="fill:#212121;"/><circle cx="2630.39" cy="7585.63" r="6.25" style="fill:#212121;"/><circle cx="3397.48" cy="7585.63" r="6.25" style="fill:#212121;"/><circle cx="4164.57" cy="7585.63" r="6.25" style="fill:#212121;"/><circle cx="4931.65" cy="7585.63" r="6.25" style="fill:#212121;"/><circle cx="5698.74" cy="7585.63" r="6.25" style="fill:#212121;"/><circle cx="6465.83" cy="7585.63" r="6.25" style="fill:#212121;"/><circle cx="7232.91" cy="7585.63" r="6.25" style="fill:#212121;"/><circle cx="8000" cy="7585.63" r="6.25" style="fill:#212121;"/><circle cx="8767.09" cy="7585.63" r="6.25" style="fill:#212121;"/><circle cx="9534.17" cy="7585.63" r="6.25" style="fill:#212121;"/><circle cx="10301.3" cy="7585.63" r="6.25" style="fill:#212121;"/><circle cx="11068.3" cy="7585.63" r="6.25" style="fill:#212121;"/><circle cx="11835.4" cy="7585.63" r="6.25" style="fill:#212121;"/><circle cx="12602.5" cy="7585.63" r="6.25" style="fill:#212121;"/><circle cx="13369.6" cy="7585.63" r="6.25" style="fill:#212121;"/><circle cx="14136.7" cy="7585.63" r="6.25" style="fill:#212121;"/><circle cx="14903.8" cy="7585.63" r="6.25" style="fill:#212121;"/><circle cx="15670.9" cy="7585.63" r="6.25" style="fill:#212121;"/></g><g><circle cx="329.135" cy="8405.71" r="6.25" style="fill:#212121;"/><circle cx="1096.22" cy="8405.71" r="6.25" style="fill:#212121;"/><circle cx="1863.31" cy="8405.71" r="6.25" style="fill:#212121;"/><circle cx="2630.39" cy="8405.71" r="6.25" style="fill:#212121;"/><circle cx="3397.48" cy="8405.71" r="6.25" style="fill:#212121;"/><circle cx="4164.57" cy="8405.71" r="6.25" style="fill:#212121;"/><circle cx="4931.65" cy="8405.71" r="6.25" style="fill:#212121;"/><circle cx="5698.74" cy="8405.71" r="6.25" style="fill:#212121;"/><circle cx="6465.83" cy="8405.71" r="6.25" style="fill:#212121;"/><circle cx="7232.91" cy="8405.71" r="6.25" style="fill:#212121;"/><circle cx="8000" cy="8405.71" r="6.25" style="fill:#212121;"/><circle cx="8767.09" cy="8405.71" r="6.25" style="fill:#212121;"/><circle cx="9534.17" cy="8405.71" r="6.25" style="fill:#212121;"/><circle cx="10301.3" cy="8405.71" r="6.25" style="fill:#212121;"/><circle cx="11068.3" cy="8405.71" r="6.25" style="fill:#212121;"/><circle cx="11835.4" cy="8405.71" r="6.25" style="fill:#212121;"/><circle cx="12602.5" cy="8405.71" r="6.25" style="fill:#212121;"/><circle cx="13369.6" cy="8405.71" r="6.25" style="fill:#212121;"/><circle cx="14136.7" cy="8405.71" r="6.25" style="fill:#212121;"/><circle cx="14903.8" cy="8405.71" r="6.25" style="fill:#212121;"/><circle cx="15670.9" cy="8405.71" r="6.25" style="fill:#212121;"/></g><g><circle cx="738.187" cy="594.291" r="6.25" style="fill:#212121;"/><circle cx="1505.27" cy="594.291" r="6.25" style="fill:#212121;"/><circle cx="2272.36" cy="594.291" r="6.25" style="fill:#212121;"/><circle cx="3039.45" cy="594.291" r="6.25" style="fill:#212121;"/><circle cx="3806.53" cy="594.291" r="6.25" style="fill:#212121;"/><circle cx="4573.62" cy="594.291" r="6.25" style="fill:#212121;"/><circle cx="5340.71" cy="594.291" r="6.25" style="fill:#212121;"/><circle cx="6107.79" cy="594.291" r="6.25" style="fill:#212121;"/><circle cx="6874.88" cy="594.291" r="6.25" style="fill:#212121;"/><circle cx="7641.97" cy="594.291" r="6.25" style="fill:#212121;"/><circle cx="8409.05" cy="594.291" r="6.25" style="fill:#212121;"/><circle cx="9176.14" cy="594.291" r="6.25" style="fill:#212121;"/><circle cx="9943.23" cy="594.291" r="6.25" style="fill:#212121;"/><circle cx="10710.3" cy="594.291" r="6.25" style="fill:#212121;"/><circle cx="11477.4" cy="594.291" r="6.25" style="fill:#212121;"/><circle cx="12244.5" cy="594.291" r="6.25" style="fill:#212121;"/><circle cx="13011.6" cy="594.291" r="6.25" style="fill:#212121;"/><circle cx="13778.7" cy="594.291" r="6.25" style="fill:#212121;"/><circle cx="14545.7" cy="594.291" r="6.25" style="fill:#212121;"/><circle cx="15312.8" cy="594.291" r="6.25" style="fill:#212121;"/></g><g><circle cx="738.187" cy="1414.37" r="6.25" style="fill:#212121;"/><circle cx="1505.27" cy="1414.37" r="6.25" style="fill:#212121;"/><circle cx="2272.36" cy="1414.37" r="6.25" style="fill:#212121;"/><circle cx="3039.45" cy="1414.37" r="6.25" style="fill:#212121;"/><circle cx="3806.53" cy="1414.37" r="6.25" style="fill:#212121;"/><circle cx="4573.62" cy="1414.37" r="6.25" style="fill:#212121;"/><circle cx="5340.71" cy="1414.37" r="6.25" style="fill:#212121;"/><circle cx="6107.79" cy="1414.37" r="6.25" style="fill:#212121;"/><circle cx="6874.88" cy="1414.37" r="6.25" style="fill:#212121;"/><circle cx="7641.97" cy="1414.37" r="6.25" style="fill:#212121;"/><circle cx="8409.05" cy="1414.37" r="6.25" style="fill:#212121;"/><circle cx="9176.14" cy="1414.37" r="6.25" style="fill:#212121;"/><circle cx="9943.23" cy="1414.37" r="6.25" style="fill:#212121;"/><circle cx="10710.3" cy="1414.37" r="6.25" style="fill:#212121;"/><circle cx="11477.4" cy="1414.37" r="6.25" style="fill:#212121;"/><circle cx="12244.5" cy="1414.37" r="6.25" style="fill:#212121;"/><circle cx="13011.6" cy="1414.37" r="6.25" style="fill:#212121;"/><circle cx="13778.7" cy="1414.37" r="6.25" style="fill:#212121;"/><circle cx="14545.7" cy="1414.37" r="6.25" style="fill:#212121;"/><circle cx="15312.8" cy="1414.37" r="6.25" style="fill:#212121;"/></g><g><circle cx="738.187" cy="2234.44" r="6.25" style="fill:#212121;"/><circle cx="1505.27" cy="2234.44" r="6.25" style="fill:#212121;"/><circle cx="2272.36" cy="2234.44" r="6.25" style="fill:#212121;"/><circle cx="3039.45" cy="2234.44" r="6.25" style="fill:#212121;"/><circle cx="3806.53" cy="2234.44" r="6.25" style="fill:#212121;"/><circle cx="4573.62" cy="2234.44" r="6.25" style="fill:#212121;"/><circle cx="5340.71" cy="2234.44" r="6.25" style="fill:#212121;"/><circle cx="6107.79" cy="2234.44" r="6.25" style="fill:#212121;"/><circle cx="6874.88" cy="2234.44" r="6.25" style="fill:#212121;"/><circle cx="7641.97" cy="2234.44" r="6.25" style="fill:#212121;"/><circle cx="8409.05" cy="2234.44" r="6.25" style="fill:#212121;"/><circle cx="9176.14" cy="2234.44" r="6.25" style="fill:#212121;"/><circle cx="9943.23" cy="2234.44" r="6.25" style="fill:#212121;"/><circle cx="10710.3" cy="2234.44" r="6.25" style="fill:#212121;"/><circle cx="11477.4" cy="2234.44" r="6.25" style="fill:#212121;"/><circle cx="12244.5" cy="2234.44" r="6.25" style="fill:#212121;"/><circle cx="13011.6" cy="2234.44" r="6.25" style="fill:#212121;"/><circle cx="13778.7" cy="2234.44" r="6.25" style="fill:#212121;"/><circle cx="14545.7" cy="2234.44" r="6.25" style="fill:#212121;"/><circle cx="15312.8" cy="2234.44" r="6.25" style="fill:#212121;"/></g><g><circle cx="738.187" cy="3054.52" r="6.25" style="fill:#212121;"/><circle cx="1505.27" cy="3054.52" r="6.25" style="fill:#212121;"/><circle cx="2272.36" cy="3054.52" r="6.25" style="fill:#212121;"/><circle cx="3039.45" cy="3054.52" r="6.25" style="fill:#212121;"/><circle cx="3806.53" cy="3054.52" r="6.25" style="fill:#212121;"/><circle cx="4573.62" cy="3054.52" r="6.25" style="fill:#212121;"/><circle cx="5340.71" cy="3054.52" r="6.25" style="fill:#212121;"/><circle cx="6107.79" cy="3054.52" r="6.25" style="fill:#212121;"/><circle cx="6874.88" cy="3054.52" r="6.25" style="fill:#212121;"/><circle cx="7641.97" cy="3054.52" r="6.25" style="fill:#212121;"/><circle cx="8409.05" cy="3054.52" r="6.25" style="fill:#212121;"/><circle cx="9176.14" cy="3054.52" r="6.25" style="fill:#212121;"/><circle cx="9943.23" cy="3054.52" r="6.25" style="fill:#212121;"/><circle cx="10710.3" cy="3054.52" r="6.25" style="fill:#212121;"/><circle cx="11477.4" cy="3054.52" r="6.25" style="fill:#212121;"/><circle cx="12244.5" cy="3054.52" r="6.25" style="fill:#212121;"/><circle cx="13011.6" cy="3054.52" r="6.25" style="fill:#212121;"/><circle cx="13778.7" cy="3054.52" r="6.25" style="fill:#212121;"/><circle cx="14545.7" cy="3054.52" r="6.25" style="fill:#212121;"/><circle cx="15312.8" cy="3054.52" r="6.25" style="fill:#212121;"/></g><g><circle cx="738.187" cy="3874.59" r="6.25" style="fill:#212121;"/><circle cx="1505.27" cy="3874.59" r="6.25" style="fill:#212121;"/><circle cx="2272.36" cy="3874.59" r="6.25" style="fill:#212121;"/><circle cx="3039.45" cy="3874.59" r="6.25" style="fill:#212121;"/><circle cx="3806.53" cy="3874.59" r="6.25" style="fill:#212121;"/><circle cx="4573.62" cy="3874.59" r="6.25" style="fill:#212121;"/><circle cx="5340.71" cy="3874.59" r="6.25" style="fill:#212121;"/><circle cx="6107.79" cy="3874.59" r="6.25" style="fill:#212121;"/><circle cx="6874.88" cy="3874.59" r="6.25" style="fill:#212121;"/><circle cx="7641.97" cy="3874.59" r="6.25" style="fill:#212121;"/><circle cx="8409.05" cy="3874.59" r="6.25" style="fill:#212121;"/><circle cx="9176.14" cy="3874.59" r="6.25" style="fill:#212121;"/><circle cx="9943.23" cy="3874.59" r="6.25" style="fill:#212121;"/><circle cx="10710.3" cy="3874.59" r="6.25" style="fill:#212121;"/><circle cx="11477.4" cy="3874.59" r="6.25" style="fill:#212121;"/><circle cx="12244.5" cy="3874.59" r="6.25" style="fill:#212121;"/><circle cx="13011.6" cy="3874.59" r="6.25" style="fill:#212121;"/><circle cx="13778.7" cy="3874.59" r="6.25" style="fill:#212121;"/><circle cx="14545.7" cy="3874.59" r="6.25" style="fill:#212121;"/><circle cx="15312.8" cy="3874.59" r="6.25" style="fill:#212121;"/></g><g><circle cx="738.187" cy="4694.67" r="6.25" style="fill:#212121;"/><circle cx="1505.27" cy="4694.67" r="6.25" style="fill:#212121;"/><circle cx="2272.36" cy="4694.67" r="6.25" style="fill:#212121;"/><circle cx="3039.45" cy="4694.67" r="6.25" style="fill:#212121;"/><circle cx="3806.53" cy="4694.67" r="6.25" style="fill:#212121;"/><circle cx="4573.62" cy="4694.67" r="6.25" style="fill:#212121;"/><circle cx="5340.71" cy="4694.67" r="6.25" style="fill:#212121;"/><circle cx="6107.79" cy="4694.67" r="6.25" style="fill:#212121;"/><circle cx="6874.88" cy="4694.67" r="6.25" style="fill:#212121;"/><circle cx="7641.97" cy="4694.67" r="6.25" style="fill:#212121;"/><circle cx="8409.05" cy="4694.67" r="6.25" style="fill:#212121;"/><circle cx="9176.14" cy="4694.67" r="6.25" style="fill:#212121;"/><circle cx="9943.23" cy="4694.67" r="6.25" style="fill:#212121;"/><circle cx="10710.3" cy="4694.67" r="6.25" style="fill:#212121;"/><circle cx="11477.4" cy="4694.67" r="6.25" style="fill:#212121;"/><circle cx="12244.5" cy="4694.67" r="6.25" style="fill:#212121;"/><circle cx="13011.6" cy="4694.67" r="6.25" style="fill:#212121;"/><circle cx="13778.7" cy="4694.67" r="6.25" style="fill:#212121;"/><circle cx="14545.7" cy="4694.67" r="6.25" style="fill:#212121;"/><circle cx="15312.8" cy="4694.67" r="6.25" style="fill:#212121;"/></g><g><circle cx="738.187" cy="5514.74" r="6.25" style="fill:#212121;"/><circle cx="1505.27" cy="5514.74" r="6.25" style="fill:#212121;"/><circle cx="2272.36" cy="5514.74" r="6.25" style="fill:#212121;"/><circle cx="3039.45" cy="5514.74" r="6.25" style="fill:#212121;"/><circle cx="3806.53" cy="5514.74" r="6.25" style="fill:#212121;"/><circle cx="4573.62" cy="5514.74" r="6.25" style="fill:#212121;"/><circle cx="5340.71" cy="5514.74" r="6.25" style="fill:#212121;"/><circle cx="6107.79" cy="5514.74" r="6.25" style="fill:#212121;"/><circle cx="6874.88" cy="5514.74" r="6.25" style="fill:#212121;"/><circle cx="7641.97" cy="5514.74" r="6.25" style="fill:#212121;"/><circle cx="8409.05" cy="5514.74" r="6.25" style="fill:#212121;"/><circle cx="9176.14" cy="5514.74" r="6.25" style="fill:#212121;"/><circle cx="9943.23" cy="5514.74" r="6.25" style="fill:#212121;"/><circle cx="10710.3" cy="5514.74" r="6.25" style="fill:#212121;"/><circle cx="11477.4" cy="5514.74" r="6.25" style="fill:#212121;"/><circle cx="12244.5" cy="5514.74" r="6.25" style="fill:#212121;"/><circle cx="13011.6" cy="5514.74" r="6.25" style="fill:#212121;"/><circle cx="13778.7" cy="5514.74" r="6.25" style="fill:#212121;"/><circle cx="14545.7" cy="5514.74" r="6.25" style="fill:#212121;"/><circle cx="15312.8" cy="5514.74" r="6.25" style="fill:#212121;"/></g><g><circle cx="738.187" cy="6334.82" r="6.25" style="fill:#212121;"/><circle cx="1505.27" cy="6334.82" r="6.25" style="fill:#212121;"/><circle cx="2272.36" cy="6334.82" r="6.25" style="fill:#212121;"/><circle cx="3039.45" cy="6334.82" r="6.25" style="fill:#212121;"/><circle cx="3806.53" cy="6334.82" r="6.25" style="fill:#212121;"/><circle cx="4573.62" cy="6334.82" r="6.25" style="fill:#212121;"/><circle cx="5340.71" cy="6334.82" r="6.25" style="fill:#212121;"/><circle cx="6107.79" cy="6334.82" r="6.25" style="fill:#212121;"/><circle cx="6874.88" cy="6334.82" r="6.25" style="fill:#212121;"/><circle cx="7641.97" cy="6334.82" r="6.25" style="fill:#212121;"/><circle cx="8409.05" cy="6334.82" r="6.25" style="fill:#212121;"/><circle cx="9176.14" cy="6334.82" r="6.25" style="fill:#212121;"/><circle cx="9943.23" cy="6334.82" r="6.25" style="fill:#212121;"/><circle cx="10710.3" cy="6334.82" r="6.25" style="fill:#212121;"/><circle cx="11477.4" cy="6334.82" r="6.25" style="fill:#212121;"/><circle cx="12244.5" cy="6334.82" r="6.25" style="fill:#212121;"/><circle cx="13011.6" cy="6334.82" r="6.25" style="fill:#212121;"/><circle cx="13778.7" cy="6334.82" r="6.25" style="fill:#212121;"/><circle cx="14545.7" cy="6334.82" r="6.25" style="fill:#212121;"/><circle cx="15312.8" cy="6334.82" r="6.25" style="fill:#212121;"/></g><g><circle cx="738.187" cy="7154.9" r="6.25" style="fill:#212121;"/><circle cx="1505.27" cy="7154.9" r="6.25" style="fill:#212121;"/><circle cx="2272.36" cy="7154.9" r="6.25" style="fill:#212121;"/><circle cx="3039.45" cy="7154.9" r="6.25" style="fill:#212121;"/><circle cx="3806.53" cy="7154.9" r="6.25" style="fill:#212121;"/><circle cx="4573.62" cy="7154.9" r="6.25" style="fill:#212121;"/><circle cx="5340.71" cy="7154.9" r="6.25" style="fill:#212121;"/><circle cx="6107.79" cy="7154.9" r="6.25" style="fill:#212121;"/><circle cx="6874.88" cy="7154.9" r="6.25" style="fill:#212121;"/><circle cx="7641.97" cy="7154.9" r="6.25" style="fill:#212121;"/><circle cx="8409.05" cy="7154.9" r="6.25" style="fill:#212121;"/><circle cx="9176.14" cy="7154.9" r="6.25" style="fill:#212121;"/><circle cx="9943.23" cy="7154.9" r="6.25" style="fill:#212121;"/><circle cx="10710.3" cy="7154.9" r="6.25" style="fill:#212121;"/><circle cx="11477.4" cy="7154.9" r="6.25" style="fill:#212121;"/><circle cx="12244.5" cy="7154.9" r="6.25" style="fill:#212121;"/><circle cx="13011.6" cy="7154.9" r="6.25" style="fill:#212121;"/><circle cx="13778.7" cy="7154.9" r="6.25" style="fill:#212121;"/><circle cx="14545.7" cy="7154.9" r="6.25" style="fill:#212121;"/><circle cx="15312.8" cy="7154.9" r="6.25" style="fill:#212121;"/></g><g><circle cx="738.187" cy="7974.97" r="6.25" style="fill:#212121;"/><circle cx="1505.27" cy="7974.97" r="6.25" style="fill:#212121;"/><circle cx="2272.36" cy="7974.97" r="6.25" style="fill:#212121;"/><circle cx="3039.45" cy="7974.97" r="6.25" style="fill:#212121;"/><circle cx="3806.53" cy="7974.97" r="6.25" style="fill:#212121;"/><circle cx="4573.62" cy="7974.97" r="6.25" style="fill:#212121;"/><circle cx="5340.71" cy="7974.97" r="6.25" style="fill:#212121;"/><circle cx="6107.79" cy="7974.97" r="6.25" style="fill:#212121;"/><circle cx="6874.88" cy="7974.97" r="6.25" style="fill:#212121;"/><circle cx="7641.97" cy="7974.97" r="6.25" style="fill:#212121;"/><circle cx="8409.05" cy="7974.97" r="6.25" style="fill:#212121;"/><circle cx="9176.14" cy="7974.97" r="6.25" style="fill:#212121;"/><circle cx="9943.23" cy="7974.97" r="6.25" style="fill:#212121;"/><circle cx="10710.3" cy="7974.97" r="6.25" style="fill:#212121;"/><circle cx="11477.4" cy="7974.97" r="6.25" style="fill:#212121;"/><circle cx="12244.5" cy="7974.97" r="6.25" style="fill:#212121;"/><circle cx="13011.6" cy="7974.97" r="6.25" style="fill:#212121;"/><circle cx="13778.7" cy="7974.97" r="6.25" style="fill:#212121;"/><circle cx="14545.7" cy="7974.97" r="6.25" style="fill:#212121;"/><circle cx="15312.8" cy="7974.97" r="6.25" style="fill:#212121;"/></g><g><circle cx="738.187" cy="8795.05" r="6.25" style="fill:#212121;"/><circle cx="1505.27" cy="8795.05" r="6.25" style="fill:#212121;"/><circle cx="2272.36" cy="8795.05" r="6.25" style="fill:#212121;"/><circle cx="3039.45" cy="8795.05" r="6.25" style="fill:#212121;"/><circle cx="3806.53" cy="8795.05" r="6.25" style="fill:#212121;"/><circle cx="4573.62" cy="8795.05" r="6.25" style="fill:#212121;"/><circle cx="5340.71" cy="8795.05" r="6.25" style="fill:#212121;"/><circle cx="6107.79" cy="8795.05" r="6.25" style="fill:#212121;"/><circle cx="6874.88" cy="8795.05" r="6.25" style="fill:#212121;"/><circle cx="7641.97" cy="8795.05" r="6.25" style="fill:#212121;"/><circle cx="8409.05" cy="8795.05" r="6.25" style="fill:#212121;"/><circle cx="9176.14" cy="8795.05" r="6.25" style="fill:#212121;"/><circle cx="9943.23" cy="8795.05" r="6.25" style="fill:#212121;"/><circle cx="10710.3" cy="8795.05" r="6.25" style="fill:#212121;"/><circle cx="11477.4" cy="8795.05" r="6.25" style="fill:#212121;"/><circle cx="12244.5" cy="8795.05" r="6.25" style="fill:#212121;"/><circle cx="13011.6" cy="8795.05" r="6.25" style="fill:#212121;"/><circle cx="13778.7" cy="8795.05" r="6.25" style="fill:#212121;"/><circle cx="14545.7" cy="8795.05" r="6.25" style="fill:#212121;"/><circle cx="15312.8" cy="8795.05" r="6.25" style="fill:#212121;"/></g></g></svg>